<?xml version="1.0" standalone="no"?>
<!DOCTYPE svg PUBLIC "-//W3C//DTD SVG 20010904//EN"
 "http://www.w3.org/TR/2001/REC-SVG-20010904/DTD/svg10.dtd">
<svg version="1.0" xmlns="http://www.w3.org/2000/svg"
 width="348.000000pt" height="348.000000pt" viewBox="0 0 348.000000 348.000000"
 preserveAspectRatio="xMidYMid meet">
<metadata>
Created by potrace 1.11, written by Peter Selinger 2001-2013
</metadata>
<g transform="translate(0.000000,348.000000) scale(0.100000,-0.100000)"
fill="#000000" stroke="none">
<path d="M0 1740 l0 -1740 1740 0 1740 0 0 1740 0 1740 -1740 0 -1740 0 0
-1740z m1952 1317 c124 -61 205 -202 224 -387 l7 -71 -108 3 -108 3 -11 55
c-23 112 -75 165 -161 165 -46 0 -58 -4 -86 -30 -44 -42 -59 -83 -59 -162 0
-77 24 -138 70 -177 16 -13 80 -52 142 -86 142 -77 197 -117 247 -180 153
-194 123 -593 -57 -751 -64 -56 -136 -83 -227 -83 -95 -1 -163 21 -232 73 -98
75 -168 223 -180 383 l-6 78 106 0 105 0 7 -42 c12 -79 37 -139 74 -178 69
-72 172 -74 238 -4 42 44 56 101 51 191 -8 128 -47 170 -259 283 -165 88 -234
164 -275 305 -21 73 -24 245 -5 325 33 140 124 256 234 299 76 30 193 25 269
-12z m825 11 c69 -25 148 -96 187 -167 33 -61 66 -188 66 -253 l0 -48 -105 0
c-117 0 -105 -8 -120 81 -12 77 -87 149 -155 149 -46 0 -97 -33 -124 -80 -16
-27 -21 -53 -21 -115 0 -124 37 -173 189 -251 292 -151 377 -283 363 -569 -8
-175 -52 -282 -152 -373 -69 -64 -133 -87 -235 -86 -102 1 -174 30 -250 101
-90 83 -139 198 -156 363 l-7 70 110 0 110 0 6 -56 c23 -226 247 -302 341
-117 11 22 16 58 16 115 -1 146 -35 189 -241 298 -244 129 -317 252 -306 515
5 133 24 202 78 287 88 137 255 193 406 136z m-1842 -23 c86 -23 149 -61 215
-132 100 -107 162 -263 191 -478 17 -128 6 -424 -19 -540 -57 -261 -177 -424
-361 -487 -62 -22 -82 -23 -306 -23 l-240 0 -3 838 -2 837 233 0 c177 0 247
-4 292 -15z m245 -2007 l0 -171 24 22 c29 28 116 61 159 61 45 -1 112 -33 134
-66 15 -23 18 -53 21 -179 3 -185 5 -194 42 -207 17 -5 30 -16 30 -24 0 -11
-24 -14 -120 -14 -94 0 -120 3 -120 14 0 7 14 17 32 22 25 7 34 17 41 44 14
53 2 270 -17 307 -18 36 -33 43 -91 43 -51 0 -100 -35 -121 -87 -16 -38 -19
-254 -4 -283 5 -10 23 -21 40 -25 16 -4 30 -13 30 -21 0 -11 -24 -14 -125 -14
-101 0 -125 3 -125 14 0 8 14 17 30 21 17 4 35 15 41 26 6 13 9 121 7 310 -3
312 -3 308 -55 309 -15 0 -23 6 -23 18 0 14 15 21 73 34 39 8 78 16 85 17 9 1
12 -39 12 -171z m930 -157 c0 -182 4 -341 9 -354 6 -16 21 -28 40 -32 17 -4
31 -13 31 -21 0 -11 -24 -14 -125 -14 -100 0 -125 3 -125 14 0 8 12 17 27 21
16 4 34 11 40 17 18 15 19 598 1 616 -7 7 -25 12 -40 12 -21 0 -28 5 -28 19 0
15 14 21 73 34 39 8 78 15 85 16 9 1 12 -71 12 -328z m300 -15 c0 -369 -2
-358 53 -371 15 -4 27 -13 27 -21 0 -11 -26 -14 -130 -14 -106 0 -130 3 -130
14 0 8 13 17 29 21 56 12 56 14 56 325 0 313 -1 320 -56 320 -21 0 -29 5 -29
18 0 15 15 21 78 34 42 9 83 16 90 17 9 1 12 -74 12 -343z m-600 304 c11 -11
20 -29 20 -40 0 -11 -9 -29 -20 -40 -26 -26 -55 -25 -81 1 -15 15 -19 28 -14
47 12 52 60 67 95 32z m-1030 -21 c90 -14 140 -44 168 -99 37 -74 23 -153 -37
-210 -47 -45 -92 -59 -208 -67 l-93 -6 0 -113 c0 -134 11 -154 80 -154 33 0
40 -3 40 -20 0 -19 -7 -20 -161 -20 -147 0 -160 1 -157 18 2 11 14 18 35 20
61 6 63 17 63 310 0 151 -4 271 -10 281 -5 10 -25 22 -45 25 -26 5 -35 12 -35
26 0 19 8 20 148 20 81 0 176 -5 212 -11z m1040 -398 c0 -110 4 -211 10 -225
6 -18 19 -27 45 -32 20 -3 35 -12 35 -20 0 -11 -26 -14 -135 -14 -110 0 -135
3 -135 14 0 8 14 17 30 21 55 12 62 36 58 205 -3 136 -5 153 -22 166 -11 8
-31 14 -44 14 -17 0 -23 5 -20 17 2 13 24 22 83 34 44 9 83 17 88 18 4 1 7
-89 7 -198z m925 169 c0 -8 -11 -17 -25 -20 -41 -10 -36 -46 27 -199 32 -78
61 -141 64 -141 12 0 121 286 118 310 -3 19 -11 26 -31 28 -20 2 -28 9 -28 23
0 17 8 19 100 19 93 0 100 -1 100 -20 0 -13 -7 -20 -20 -20 -11 0 -27 -11 -36
-25 -9 -13 -72 -149 -141 -302 -80 -178 -136 -289 -155 -310 -53 -55 -148 -54
-148 1 0 28 15 42 55 51 67 15 86 28 111 76 13 27 24 53 24 59 0 6 -44 106
-97 222 -89 192 -100 212 -130 225 -33 13 -40 23 -26 37 4 3 59 5 122 4 94 -2
116 -6 116 -18z"/>
<path d="M620 2225 l0 -577 133 4 c152 5 199 20 261 84 87 90 126 239 126 484
0 312 -68 487 -213 550 -42 19 -76 24 -179 28 l-128 5 0 -578z"/>
<path d="M610 966 l0 -146 46 0 c72 0 132 19 158 51 47 55 42 161 -9 209 -21
20 -38 24 -110 28 l-85 5 0 -147z"/>
</g>
</svg>
